<mxfile host="Electron" agent="Mozilla/5.0 (Macintosh; Intel Mac OS X 10_15_7) AppleWebKit/537.36 (KHTML, like Gecko) draw.io/26.2.15 Chrome/134.0.6998.205 Electron/35.2.1 Safari/537.36" version="26.2.15">
  <diagram name="페이지-1" id="eJOpgobVvoI6VlJ8I2F_">
    <mxGraphModel dx="657" dy="501" grid="1" gridSize="10" guides="1" tooltips="1" connect="1" arrows="1" fold="1" page="1" pageScale="1" pageWidth="350" pageHeight="400" math="0" shadow="0">
      <root>
        <mxCell id="0" />
        <mxCell id="1" parent="0" />
        <mxCell id="4hYVy7ynffR2fAa8xfok-1" value="" style="rounded=0;whiteSpace=wrap;html=1;" parent="1" vertex="1">
          <mxGeometry x="50" y="50" width="770" height="310" as="geometry" />
        </mxCell>
        <mxCell id="4hYVy7ynffR2fAa8xfok-2" value=":Guest" style="shape=umlActor;verticalLabelPosition=bottom;verticalAlign=top;html=1;outlineConnect=0;" parent="1" vertex="1">
          <mxGeometry x="100" y="130" width="30" height="60" as="geometry" />
        </mxCell>
        <mxCell id="4hYVy7ynffR2fAa8xfok-3" value=":RegisterMemberUI" style="rounded=0;whiteSpace=wrap;html=1;" parent="1" vertex="1">
          <mxGeometry x="260" y="140" width="120" height="40" as="geometry" />
        </mxCell>
        <mxCell id="4hYVy7ynffR2fAa8xfok-4" value=":RegisterMember" style="rounded=0;whiteSpace=wrap;html=1;" parent="1" vertex="1">
          <mxGeometry x="480" y="140" width="120" height="40" as="geometry" />
        </mxCell>
        <mxCell id="4hYVy7ynffR2fAa8xfok-5" value="" style="endArrow=none;html=1;rounded=0;exitX=1;exitY=0.5;exitDx=0;exitDy=0;entryX=0;entryY=0.5;entryDx=0;entryDy=0;" parent="1" source="4hYVy7ynffR2fAa8xfok-3" target="4hYVy7ynffR2fAa8xfok-4" edge="1">
          <mxGeometry width="50" height="50" relative="1" as="geometry">
            <mxPoint x="420" y="210" as="sourcePoint" />
            <mxPoint x="470" y="160" as="targetPoint" />
          </mxGeometry>
        </mxCell>
        <mxCell id="4hYVy7ynffR2fAa8xfok-6" value="" style="endArrow=none;html=1;rounded=0;entryX=0;entryY=0.5;entryDx=0;entryDy=0;" parent="1" source="4hYVy7ynffR2fAa8xfok-2" target="4hYVy7ynffR2fAa8xfok-3" edge="1">
          <mxGeometry width="50" height="50" relative="1" as="geometry">
            <mxPoint x="420" y="210" as="sourcePoint" />
            <mxPoint x="470" y="160" as="targetPoint" />
          </mxGeometry>
        </mxCell>
        <mxCell id="4hYVy7ynffR2fAa8xfok-8" value=":Member" style="rounded=0;whiteSpace=wrap;html=1;" parent="1" vertex="1">
          <mxGeometry x="710" y="140" width="90" height="40" as="geometry" />
        </mxCell>
        <mxCell id="4hYVy7ynffR2fAa8xfok-9" value="" style="endArrow=none;html=1;rounded=0;entryX=0.5;entryY=1;entryDx=0;entryDy=0;exitX=0.5;exitY=0;exitDx=0;exitDy=0;" parent="1" source="4hYVy7ynffR2fAa8xfok-16" target="4hYVy7ynffR2fAa8xfok-4" edge="1">
          <mxGeometry width="50" height="50" relative="1" as="geometry">
            <mxPoint x="650" y="290" as="sourcePoint" />
            <mxPoint x="480" y="160" as="targetPoint" />
          </mxGeometry>
        </mxCell>
        <mxCell id="4hYVy7ynffR2fAa8xfok-11" value="" style="endArrow=classic;html=1;rounded=0;" parent="1" edge="1">
          <mxGeometry width="50" height="50" relative="1" as="geometry">
            <mxPoint x="460" y="180" as="sourcePoint" />
            <mxPoint x="394" y="180" as="targetPoint" />
          </mxGeometry>
        </mxCell>
        <mxCell id="4hYVy7ynffR2fAa8xfok-14" value="" style="group" parent="1" vertex="1" connectable="0">
          <mxGeometry x="50.004999999999995" y="70.005" width="167.5" height="82.82" as="geometry" />
        </mxCell>
        <mxCell id="4hYVy7ynffR2fAa8xfok-13" value="" style="shape=card;whiteSpace=wrap;html=1;rotation=90;direction=south;size=21;" parent="4hYVy7ynffR2fAa8xfok-14" vertex="1">
          <mxGeometry x="36.09" y="-56.09" width="28.44" height="100.64" as="geometry" />
        </mxCell>
        <mxCell id="4hYVy7ynffR2fAa8xfok-12" value="&lt;font style=&quot;font-size: 15px;&quot;&gt;&lt;b&gt;Register&lt;/b&gt;&lt;/font&gt;" style="text;html=1;align=center;verticalAlign=middle;whiteSpace=wrap;rounded=0;" parent="4hYVy7ynffR2fAa8xfok-14" vertex="1">
          <mxGeometry x="0.004999999999997229" y="-21.995000000000005" width="90" height="30" as="geometry" />
        </mxCell>
        <mxCell id="4hYVy7ynffR2fAa8xfok-15" value="1: startInterface()" style="text;html=1;align=center;verticalAlign=middle;whiteSpace=wrap;rounded=0;" parent="1" vertex="1">
          <mxGeometry x="364" y="190" width="120" height="30" as="geometry" />
        </mxCell>
        <mxCell id="4hYVy7ynffR2fAa8xfok-16" value="newMember:Member" style="rounded=0;whiteSpace=wrap;html=1;" parent="1" vertex="1">
          <mxGeometry x="475" y="290" width="130" height="40" as="geometry" />
        </mxCell>
        <mxCell id="4hYVy7ynffR2fAa8xfok-19" value="" style="endArrow=classic;html=1;rounded=0;" parent="1" edge="1">
          <mxGeometry width="50" height="50" relative="1" as="geometry">
            <mxPoint x="394" y="139.33" as="sourcePoint" />
            <mxPoint x="460" y="139.33" as="targetPoint" />
          </mxGeometry>
        </mxCell>
        <mxCell id="4hYVy7ynffR2fAa8xfok-20" value="" style="endArrow=classic;html=1;rounded=0;" parent="1" edge="1">
          <mxGeometry width="50" height="50" relative="1" as="geometry">
            <mxPoint x="164" y="139.33" as="sourcePoint" />
            <mxPoint x="230" y="139.33" as="targetPoint" />
          </mxGeometry>
        </mxCell>
        <mxCell id="4hYVy7ynffR2fAa8xfok-22" value="2: createNewMember()" style="text;html=1;align=center;verticalAlign=middle;whiteSpace=wrap;rounded=0;" parent="1" vertex="1">
          <mxGeometry x="130" y="108" width="130" height="30" as="geometry" />
        </mxCell>
        <mxCell id="4hYVy7ynffR2fAa8xfok-24" value="2.1.1: Member()" style="text;html=1;align=center;verticalAlign=middle;whiteSpace=wrap;rounded=0;" parent="1" vertex="1">
          <mxGeometry x="540" y="220" width="125" height="30" as="geometry" />
        </mxCell>
        <mxCell id="4hYVy7ynffR2fAa8xfok-25" value="2.1: createNewMember()" style="text;html=1;align=center;verticalAlign=middle;whiteSpace=wrap;rounded=0;" parent="1" vertex="1">
          <mxGeometry x="351" y="108" width="146" height="30" as="geometry" />
        </mxCell>
        <mxCell id="CCHNL9645GlloZSp7d-6-1" value="" style="endArrow=classic;html=1;rounded=0;" parent="1" edge="1">
          <mxGeometry width="50" height="50" relative="1" as="geometry">
            <mxPoint x="550" y="205" as="sourcePoint" />
            <mxPoint x="550" y="265" as="targetPoint" />
          </mxGeometry>
        </mxCell>
        <mxCell id="CCHNL9645GlloZSp7d-6-2" value="" style="endArrow=none;html=1;rounded=0;entryX=0;entryY=0.5;entryDx=0;entryDy=0;exitX=1;exitY=0.5;exitDx=0;exitDy=0;" parent="1" source="4hYVy7ynffR2fAa8xfok-4" target="4hYVy7ynffR2fAa8xfok-8" edge="1">
          <mxGeometry width="50" height="50" relative="1" as="geometry">
            <mxPoint x="600" y="180" as="sourcePoint" />
            <mxPoint x="650" y="130" as="targetPoint" />
          </mxGeometry>
        </mxCell>
        <mxCell id="mfxfWpU_X73SYAE8eUXb-1" value="" style="endArrow=classic;html=1;rounded=0;" edge="1" parent="1">
          <mxGeometry width="50" height="50" relative="1" as="geometry">
            <mxPoint x="624" y="142.33" as="sourcePoint" />
            <mxPoint x="690" y="142.33" as="targetPoint" />
          </mxGeometry>
        </mxCell>
        <mxCell id="mfxfWpU_X73SYAE8eUXb-2" value="2.1.2: getRegisterMemberDetails()" style="text;html=1;align=center;verticalAlign=middle;whiteSpace=wrap;rounded=0;" vertex="1" parent="1">
          <mxGeometry x="570" y="108" width="189" height="30" as="geometry" />
        </mxCell>
      </root>
    </mxGraphModel>
  </diagram>
</mxfile>
